<svg width="40" height="40" viewBox="0 0 40 40" fill="none" xmlns="http://www.w3.org/2000/svg">
<path d="M26.6668 36.6666H30.0002C30.8842 36.6666 31.7321 36.3154 32.3572 35.6903C32.9823 35.0652 33.3335 34.2173 33.3335 33.3333V11.6666L25.0002 3.33325H10.0002C9.11611 3.33325 8.26826 3.68444 7.64314 4.30956C7.01802 4.93468 6.66683 5.78253 6.66683 6.66659V11.6666M23.3335 3.33325V9.99992C23.3335 10.884 23.6847 11.7318 24.3098 12.3569C24.9349 12.9821 25.7828 13.3333 26.6668 13.3333H33.3335M15.8335 29.1666L13.3335 27.0833V23.3333M23.3335 26.6666C23.3335 32.1894 18.8563 36.6666 13.3335 36.6666C7.81065 36.6666 3.3335 32.1894 3.3335 26.6666C3.3335 21.1437 7.81065 16.6666 13.3335 16.6666C18.8563 16.6666 23.3335 21.1437 23.3335 26.6666Z" stroke="#8C1D40" stroke-width="3.33333" stroke-linecap="round" stroke-linejoin="round"/>
</svg>
